<svg width="220" height="174" viewBox="0 0 220 174" fill="none" xmlns="http://www.w3.org/2000/svg">
<g clip-path="url(#clip0_24_240)">
<path d="M147.34 17.5786L118.594 46.2734C113.848 51.0112 113.848 58.6928 118.594 63.4306L147.34 92.1254C152.086 96.8632 159.781 96.8632 164.528 92.1254L193.274 63.4306C198.02 58.6928 198.02 51.0112 193.274 46.2734L164.528 17.5786C159.781 12.8408 152.086 12.8408 147.34 17.5786Z" fill="#6CEEC7"/>
<path opacity="0.4" d="M68.8182 7.59043L7.60381 68.6958C-2.52329 78.8049 -2.52328 95.195 7.60382 105.304L68.8182 166.409C78.9453 176.519 95.3645 176.519 105.492 166.409L166.706 105.304C176.833 95.195 176.833 78.8049 166.706 68.6958L105.492 7.59042C95.3645 -2.51865 78.9453 -2.51864 68.8182 7.59043Z" fill="#6CEEC7"/>
</g>
<defs>
<clipPath id="clip0_24_240">
<rect width="220" height="174" fill="white"/>
</clipPath>
</defs>
</svg>
