<svg width="24" height="24" viewBox="0 0 24 24" fill="none" xmlns="http://www.w3.org/2000/svg">
<path d="M20.4599 9.63C20.3195 8.16892 19.8031 6.76909 18.9611 5.56682C18.119 4.36456 16.98 3.40083 15.6549 2.7695C14.3298 2.13816 12.8638 1.86072 11.3996 1.96421C9.93543 2.06769 8.52301 2.54856 7.29988 3.36C6.24908 4.06265 5.36693 4.9893 4.71682 6.07339C4.06672 7.15749 3.66478 8.37211 3.53988 9.63C3.41736 10.8797 3.57455 12.1409 4.00005 13.3223C4.42555 14.5036 5.10868 15.5755 5.99988 16.46L11.2999 21.77C11.3928 21.8637 11.5034 21.9381 11.6253 21.9889C11.7472 22.0397 11.8779 22.0658 12.0099 22.0658C12.1419 22.0658 12.2726 22.0397 12.3945 21.9889C12.5163 21.9381 12.6269 21.8637 12.7199 21.77L17.9999 16.46C18.8911 15.5755 19.5742 14.5036 19.9997 13.3223C20.4252 12.1409 20.5824 10.8797 20.4599 9.63V9.63ZM16.5999 15.05L11.9999 19.65L7.39988 15.05C6.72197 14.3721 6.20268 13.5523 5.87935 12.6498C5.55601 11.7472 5.43667 10.7842 5.52988 9.83C5.6237 8.86111 5.93164 7.92516 6.43145 7.08985C6.93126 6.25453 7.61044 5.54071 8.41988 5C9.48083 4.29524 10.7262 3.9193 11.9999 3.9193C13.2736 3.9193 14.5189 4.29524 15.5799 5C16.3869 5.53862 17.0646 6.24928 17.5642 7.08094C18.0639 7.9126 18.3732 8.84461 18.4699 9.81C18.5661 10.7674 18.4483 11.7343 18.1249 12.6406C17.8014 13.5468 17.2805 14.3698 16.5999 15.05V15.05ZM11.9999 6C11.1099 6 10.2398 6.26392 9.49982 6.75839C8.75979 7.25286 8.18302 7.95566 7.84242 8.77793C7.50183 9.6002 7.41271 10.505 7.58635 11.3779C7.75998 12.2508 8.18856 13.0526 8.8179 13.682C9.44724 14.3113 10.2491 14.7399 11.122 14.9135C11.9949 15.0872 12.8997 14.9981 13.722 14.6575C14.5442 14.3169 15.247 13.7401 15.7415 13.0001C16.236 12.26 16.4999 11.39 16.4999 10.5C16.4972 9.30734 16.0223 8.16428 15.1789 7.32094C14.3356 6.4776 13.1925 6.00265 11.9999 6V6ZM11.9999 13C11.5054 13 11.0221 12.8534 10.611 12.5787C10.1998 12.304 9.8794 11.9135 9.69018 11.4567C9.50096 10.9999 9.45145 10.4972 9.54792 10.0123C9.64438 9.52733 9.88248 9.08187 10.2321 8.73224C10.5817 8.38261 11.0272 8.1445 11.5122 8.04804C11.9971 7.95158 12.4998 8.00109 12.9566 8.1903C13.4134 8.37952 13.8039 8.69996 14.0786 9.11108C14.3533 9.5222 14.4999 10.0056 14.4999 10.5C14.4999 11.163 14.2365 11.7989 13.7676 12.2678C13.2988 12.7366 12.6629 13 11.9999 13V13Z" fill="#67D9B7"/>
</svg>
